<mxfile host="app.diagrams.net" modified="2023-09-22T23:18:57.487Z" agent="Mozilla/5.0 (Macintosh; Intel Mac OS X 10_15_7) AppleWebKit/537.36 (KHTML, like Gecko) Chrome/116.0.0.0 Safari/537.36" etag="bBhmDNtq5HfsY0bekApB" version="21.8.0" type="device">
  <diagram name="Page-1" id="VfnAbRssfocRDOW8m4gu">
    <mxGraphModel dx="1166" dy="1813" grid="1" gridSize="10" guides="1" tooltips="1" connect="1" arrows="1" fold="1" page="1" pageScale="1" pageWidth="827" pageHeight="1169" math="0" shadow="0">
      <root>
        <mxCell id="0" />
        <mxCell id="1" parent="0" />
        <mxCell id="UVCWo9QbfedvT14G9NhA-2" value="Patient / Admin" style="shape=umlActor;verticalLabelPosition=bottom;verticalAlign=top;html=1;outlineConnect=0;" vertex="1" parent="1">
          <mxGeometry x="50" y="240" width="30" height="60" as="geometry" />
        </mxCell>
        <mxCell id="UVCWo9QbfedvT14G9NhA-27" style="edgeStyle=orthogonalEdgeStyle;rounded=0;orthogonalLoop=1;jettySize=auto;html=1;exitX=0.5;exitY=1;exitDx=0;exitDy=0;dashed=1;" edge="1" parent="1" source="UVCWo9QbfedvT14G9NhA-3" target="UVCWo9QbfedvT14G9NhA-26">
          <mxGeometry relative="1" as="geometry" />
        </mxCell>
        <mxCell id="UVCWo9QbfedvT14G9NhA-28" value="&amp;lt;&amp;lt;includes&amp;gt;&amp;gt;" style="edgeLabel;html=1;align=center;verticalAlign=middle;resizable=0;points=[];" vertex="1" connectable="0" parent="UVCWo9QbfedvT14G9NhA-27">
          <mxGeometry x="-0.0364" relative="1" as="geometry">
            <mxPoint as="offset" />
          </mxGeometry>
        </mxCell>
        <mxCell id="UVCWo9QbfedvT14G9NhA-43" style="edgeStyle=orthogonalEdgeStyle;shape=connector;rounded=0;orthogonalLoop=1;jettySize=auto;html=1;exitX=1;exitY=0.5;exitDx=0;exitDy=0;entryX=0;entryY=0.5;entryDx=0;entryDy=0;dashed=1;labelBackgroundColor=default;strokeColor=default;align=center;verticalAlign=middle;fontFamily=Helvetica;fontSize=11;fontColor=default;endArrow=open;endFill=0;" edge="1" parent="1" source="UVCWo9QbfedvT14G9NhA-3" target="UVCWo9QbfedvT14G9NhA-34">
          <mxGeometry relative="1" as="geometry" />
        </mxCell>
        <mxCell id="UVCWo9QbfedvT14G9NhA-44" value="&amp;lt;&amp;lt;extends&amp;gt;&amp;gt;" style="edgeLabel;html=1;align=center;verticalAlign=middle;resizable=0;points=[];fontSize=11;fontFamily=Helvetica;fontColor=default;" vertex="1" connectable="0" parent="UVCWo9QbfedvT14G9NhA-43">
          <mxGeometry x="0.0667" y="1" relative="1" as="geometry">
            <mxPoint as="offset" />
          </mxGeometry>
        </mxCell>
        <mxCell id="UVCWo9QbfedvT14G9NhA-3" value="Login" style="ellipse;whiteSpace=wrap;html=1;" vertex="1" parent="1">
          <mxGeometry x="170" y="220" width="120" height="80" as="geometry" />
        </mxCell>
        <mxCell id="UVCWo9QbfedvT14G9NhA-4" value="Make the hashing stronger by adding &quot;SALT&quot;" style="ellipse;whiteSpace=wrap;html=1;" vertex="1" parent="1">
          <mxGeometry x="354" y="190" width="120" height="80" as="geometry" />
        </mxCell>
        <mxCell id="UVCWo9QbfedvT14G9NhA-5" value="Encrypt password&amp;nbsp;" style="ellipse;whiteSpace=wrap;html=1;" vertex="1" parent="1">
          <mxGeometry x="240" y="30" width="120" height="80" as="geometry" />
        </mxCell>
        <mxCell id="UVCWo9QbfedvT14G9NhA-6" value="&amp;lt;&amp;lt;includes&amp;gt;&amp;gt;" style="endArrow=open;endSize=12;dashed=1;html=1;rounded=0;entryX=0;entryY=0.5;entryDx=0;entryDy=0;" edge="1" parent="1" target="UVCWo9QbfedvT14G9NhA-5">
          <mxGeometry width="160" relative="1" as="geometry">
            <mxPoint x="220" y="229.5" as="sourcePoint" />
            <mxPoint x="380" y="229.5" as="targetPoint" />
            <Array as="points" />
          </mxGeometry>
        </mxCell>
        <mxCell id="UVCWo9QbfedvT14G9NhA-7" value="&amp;lt;&amp;lt;includes&amp;gt;&amp;gt;" style="endArrow=open;endSize=12;dashed=1;html=1;rounded=0;exitX=0.5;exitY=1;exitDx=0;exitDy=0;entryX=0.5;entryY=0;entryDx=0;entryDy=0;" edge="1" parent="1" source="UVCWo9QbfedvT14G9NhA-5" target="UVCWo9QbfedvT14G9NhA-4">
          <mxGeometry width="160" relative="1" as="geometry">
            <mxPoint x="330" y="320" as="sourcePoint" />
            <mxPoint x="490" y="320" as="targetPoint" />
          </mxGeometry>
        </mxCell>
        <mxCell id="UVCWo9QbfedvT14G9NhA-8" value="Rob" style="shape=umlActor;verticalLabelPosition=bottom;verticalAlign=top;html=1;outlineConnect=0;fillColor=#000000;" vertex="1" parent="1">
          <mxGeometry x="850" y="200" width="30" height="60" as="geometry" />
        </mxCell>
        <mxCell id="UVCWo9QbfedvT14G9NhA-51" style="edgeStyle=orthogonalEdgeStyle;shape=connector;rounded=0;orthogonalLoop=1;jettySize=auto;html=1;dashed=1;labelBackgroundColor=default;strokeColor=default;align=center;verticalAlign=middle;fontFamily=Helvetica;fontSize=11;fontColor=default;endArrow=open;endFill=0;" edge="1" parent="1" source="UVCWo9QbfedvT14G9NhA-9" target="UVCWo9QbfedvT14G9NhA-3">
          <mxGeometry relative="1" as="geometry">
            <Array as="points">
              <mxPoint x="767" y="540" />
              <mxPoint x="150" y="540" />
              <mxPoint x="150" y="290" />
            </Array>
          </mxGeometry>
        </mxCell>
        <mxCell id="UVCWo9QbfedvT14G9NhA-52" value="&amp;lt;&amp;lt;Threatens&amp;gt;&amp;gt;" style="edgeLabel;html=1;align=center;verticalAlign=middle;resizable=0;points=[];fontSize=11;fontFamily=Helvetica;fontColor=default;" vertex="1" connectable="0" parent="UVCWo9QbfedvT14G9NhA-51">
          <mxGeometry x="-0.0419" y="-1" relative="1" as="geometry">
            <mxPoint as="offset" />
          </mxGeometry>
        </mxCell>
        <mxCell id="UVCWo9QbfedvT14G9NhA-9" value="Crack Credentials" style="ellipse;whiteSpace=wrap;html=1;fillColor=#000000;fontColor=#FFFFFF;" vertex="1" parent="1">
          <mxGeometry x="707" y="190" width="120" height="80" as="geometry" />
        </mxCell>
        <mxCell id="UVCWo9QbfedvT14G9NhA-11" value="Man in the Middle Attack" style="ellipse;whiteSpace=wrap;html=1;fillColor=#000000;fontColor=#FFFFFF;" vertex="1" parent="1">
          <mxGeometry x="650" y="330" width="90" height="80" as="geometry" />
        </mxCell>
        <mxCell id="UVCWo9QbfedvT14G9NhA-13" value="&amp;lt;&amp;lt;includes&amp;gt;&amp;gt;" style="endArrow=open;endSize=12;dashed=1;html=1;rounded=0;exitX=0.5;exitY=1;exitDx=0;exitDy=0;entryX=0.5;entryY=0;entryDx=0;entryDy=0;" edge="1" parent="1" source="UVCWo9QbfedvT14G9NhA-9" target="UVCWo9QbfedvT14G9NhA-11">
          <mxGeometry width="160" relative="1" as="geometry">
            <mxPoint x="603" y="380" as="sourcePoint" />
            <mxPoint x="597" y="310" as="targetPoint" />
          </mxGeometry>
        </mxCell>
        <mxCell id="UVCWo9QbfedvT14G9NhA-15" value="" style="line;strokeWidth=1;fillColor=none;align=left;verticalAlign=middle;spacingTop=-1;spacingLeft=3;spacingRight=3;rotatable=0;labelPosition=right;points=[];portConstraint=eastwest;strokeColor=inherit;" vertex="1" parent="1">
          <mxGeometry x="70" y="262" width="100" height="8" as="geometry" />
        </mxCell>
        <mxCell id="UVCWo9QbfedvT14G9NhA-16" value="" style="line;strokeWidth=1;fillColor=none;align=left;verticalAlign=middle;spacingTop=-1;spacingLeft=3;spacingRight=3;rotatable=0;labelPosition=right;points=[];portConstraint=eastwest;strokeColor=inherit;" vertex="1" parent="1">
          <mxGeometry x="827" y="226" width="33" height="8" as="geometry" />
        </mxCell>
        <mxCell id="UVCWo9QbfedvT14G9NhA-17" value="Rainbow Attack" style="ellipse;whiteSpace=wrap;html=1;fillColor=#000000;fontColor=#FFFFFF;" vertex="1" parent="1">
          <mxGeometry x="540" y="70" width="90" height="80" as="geometry" />
        </mxCell>
        <mxCell id="UVCWo9QbfedvT14G9NhA-20" value="&amp;lt;&amp;lt;includes&amp;gt;&amp;gt;" style="endArrow=open;endSize=12;dashed=1;html=1;rounded=0;entryX=1;entryY=0.625;entryDx=0;entryDy=0;entryPerimeter=0;exitX=0.417;exitY=-0.062;exitDx=0;exitDy=0;exitPerimeter=0;" edge="1" parent="1" source="UVCWo9QbfedvT14G9NhA-9" target="UVCWo9QbfedvT14G9NhA-17">
          <mxGeometry width="160" relative="1" as="geometry">
            <mxPoint x="720" y="180" as="sourcePoint" />
            <mxPoint x="740" y="150" as="targetPoint" />
          </mxGeometry>
        </mxCell>
        <mxCell id="UVCWo9QbfedvT14G9NhA-21" value="&amp;lt;&amp;lt;prevents&amp;gt;&amp;gt;" style="endArrow=open;endSize=12;dashed=1;html=1;rounded=0;exitX=1;exitY=0;exitDx=0;exitDy=0;" edge="1" parent="1" source="UVCWo9QbfedvT14G9NhA-4" target="UVCWo9QbfedvT14G9NhA-17">
          <mxGeometry width="160" relative="1" as="geometry">
            <mxPoint x="330" y="210" as="sourcePoint" />
            <mxPoint x="490" y="210" as="targetPoint" />
          </mxGeometry>
        </mxCell>
        <mxCell id="UVCWo9QbfedvT14G9NhA-22" value="Bruteforce Attack" style="ellipse;whiteSpace=wrap;html=1;fillColor=#000000;fontColor=#FFFFFF;" vertex="1" parent="1">
          <mxGeometry x="520" y="-40" width="110" height="80" as="geometry" />
        </mxCell>
        <mxCell id="UVCWo9QbfedvT14G9NhA-23" value="&amp;lt;&amp;lt;includes&amp;gt;&amp;gt;" style="endArrow=open;endSize=12;dashed=1;html=1;rounded=0;entryX=1;entryY=0.625;entryDx=0;entryDy=0;entryPerimeter=0;" edge="1" parent="1">
          <mxGeometry width="160" relative="1" as="geometry">
            <mxPoint x="760" y="180" as="sourcePoint" />
            <mxPoint x="630" y="5" as="targetPoint" />
          </mxGeometry>
        </mxCell>
        <mxCell id="UVCWo9QbfedvT14G9NhA-24" value="&amp;lt;&amp;lt;prevents&amp;gt;&amp;gt;" style="endArrow=open;endSize=12;dashed=1;html=1;rounded=0;exitX=1;exitY=0;exitDx=0;exitDy=0;entryX=0.033;entryY=0.775;entryDx=0;entryDy=0;entryPerimeter=0;" edge="1" parent="1" target="UVCWo9QbfedvT14G9NhA-22">
          <mxGeometry width="160" relative="1" as="geometry">
            <mxPoint x="434" y="190" as="sourcePoint" />
            <mxPoint x="510" y="129" as="targetPoint" />
          </mxGeometry>
        </mxCell>
        <mxCell id="UVCWo9QbfedvT14G9NhA-32" style="edgeStyle=orthogonalEdgeStyle;rounded=0;orthogonalLoop=1;jettySize=auto;html=1;exitX=1;exitY=0.5;exitDx=0;exitDy=0;entryX=0.5;entryY=1;entryDx=0;entryDy=0;" edge="1" parent="1" source="UVCWo9QbfedvT14G9NhA-26" target="UVCWo9QbfedvT14G9NhA-11">
          <mxGeometry relative="1" as="geometry" />
        </mxCell>
        <mxCell id="UVCWo9QbfedvT14G9NhA-33" value="&amp;lt;&amp;lt;prevents&amp;gt;&amp;gt;" style="edgeLabel;html=1;align=center;verticalAlign=middle;resizable=0;points=[];" vertex="1" connectable="0" parent="UVCWo9QbfedvT14G9NhA-32">
          <mxGeometry x="-0.1467" y="1" relative="1" as="geometry">
            <mxPoint as="offset" />
          </mxGeometry>
        </mxCell>
        <mxCell id="UVCWo9QbfedvT14G9NhA-26" value="HTTPS / TLS encryption" style="ellipse;whiteSpace=wrap;html=1;" vertex="1" parent="1">
          <mxGeometry x="175" y="420" width="110" height="80" as="geometry" />
        </mxCell>
        <mxCell id="UVCWo9QbfedvT14G9NhA-47" style="edgeStyle=orthogonalEdgeStyle;shape=connector;rounded=0;orthogonalLoop=1;jettySize=auto;html=1;exitX=1;exitY=0.5;exitDx=0;exitDy=0;entryX=0;entryY=1;entryDx=0;entryDy=0;dashed=1;labelBackgroundColor=default;strokeColor=default;align=center;verticalAlign=middle;fontFamily=Helvetica;fontSize=11;fontColor=default;endArrow=open;endFill=0;" edge="1" parent="1" source="UVCWo9QbfedvT14G9NhA-34" target="UVCWo9QbfedvT14G9NhA-46">
          <mxGeometry relative="1" as="geometry">
            <Array as="points">
              <mxPoint x="480" y="350" />
              <mxPoint x="480" y="253" />
            </Array>
          </mxGeometry>
        </mxCell>
        <mxCell id="UVCWo9QbfedvT14G9NhA-53" value="&amp;lt;&amp;lt;inlcudes&amp;gt;&amp;gt;" style="edgeLabel;html=1;align=center;verticalAlign=middle;resizable=0;points=[];fontSize=11;fontFamily=Helvetica;fontColor=default;" vertex="1" connectable="0" parent="UVCWo9QbfedvT14G9NhA-47">
          <mxGeometry x="0.3426" relative="1" as="geometry">
            <mxPoint as="offset" />
          </mxGeometry>
        </mxCell>
        <mxCell id="UVCWo9QbfedvT14G9NhA-55" style="edgeStyle=orthogonalEdgeStyle;shape=connector;rounded=0;orthogonalLoop=1;jettySize=auto;html=1;exitX=1;exitY=1;exitDx=0;exitDy=0;dashed=1;labelBackgroundColor=default;strokeColor=default;align=center;verticalAlign=middle;fontFamily=Helvetica;fontSize=11;fontColor=default;endArrow=open;endFill=0;" edge="1" parent="1" source="UVCWo9QbfedvT14G9NhA-34" target="UVCWo9QbfedvT14G9NhA-54">
          <mxGeometry relative="1" as="geometry">
            <Array as="points">
              <mxPoint x="402" y="395" />
            </Array>
          </mxGeometry>
        </mxCell>
        <mxCell id="UVCWo9QbfedvT14G9NhA-56" value="&amp;lt;&amp;lt;includes&amp;gt;&amp;gt;" style="edgeLabel;html=1;align=center;verticalAlign=middle;resizable=0;points=[];fontSize=11;fontFamily=Helvetica;fontColor=default;" vertex="1" connectable="0" parent="UVCWo9QbfedvT14G9NhA-55">
          <mxGeometry x="0.1218" relative="1" as="geometry">
            <mxPoint as="offset" />
          </mxGeometry>
        </mxCell>
        <mxCell id="UVCWo9QbfedvT14G9NhA-34" value="Update Password" style="ellipse;whiteSpace=wrap;html=1;" vertex="1" parent="1">
          <mxGeometry x="334" y="320" width="80" height="60" as="geometry" />
        </mxCell>
        <mxCell id="UVCWo9QbfedvT14G9NhA-46" value="secret questions" style="ellipse;whiteSpace=wrap;html=1;" vertex="1" parent="1">
          <mxGeometry x="520" y="202" width="80" height="60" as="geometry" />
        </mxCell>
        <mxCell id="UVCWo9QbfedvT14G9NhA-49" style="edgeStyle=orthogonalEdgeStyle;shape=connector;rounded=0;orthogonalLoop=1;jettySize=auto;html=1;exitX=1;exitY=0.5;exitDx=0;exitDy=0;entryX=-0.008;entryY=0.638;entryDx=0;entryDy=0;entryPerimeter=0;dashed=1;labelBackgroundColor=default;strokeColor=default;align=center;verticalAlign=middle;fontFamily=Helvetica;fontSize=11;fontColor=default;endArrow=open;endFill=0;" edge="1" parent="1" source="UVCWo9QbfedvT14G9NhA-46" target="UVCWo9QbfedvT14G9NhA-9">
          <mxGeometry relative="1" as="geometry" />
        </mxCell>
        <mxCell id="UVCWo9QbfedvT14G9NhA-50" value="&amp;lt;&amp;lt;mitigates&amp;gt;&amp;gt;" style="edgeLabel;html=1;align=center;verticalAlign=middle;resizable=0;points=[];fontSize=11;fontFamily=Helvetica;fontColor=default;" vertex="1" connectable="0" parent="UVCWo9QbfedvT14G9NhA-49">
          <mxGeometry x="-0.0579" y="-1" relative="1" as="geometry">
            <mxPoint as="offset" />
          </mxGeometry>
        </mxCell>
        <mxCell id="UVCWo9QbfedvT14G9NhA-58" style="edgeStyle=orthogonalEdgeStyle;shape=connector;rounded=0;orthogonalLoop=1;jettySize=auto;html=1;exitX=1;exitY=0.5;exitDx=0;exitDy=0;entryX=0.5;entryY=1;entryDx=0;entryDy=0;dashed=1;labelBackgroundColor=default;strokeColor=default;align=center;verticalAlign=middle;fontFamily=Helvetica;fontSize=11;fontColor=default;endArrow=open;endFill=0;" edge="1" parent="1" source="UVCWo9QbfedvT14G9NhA-54" target="UVCWo9QbfedvT14G9NhA-57">
          <mxGeometry relative="1" as="geometry" />
        </mxCell>
        <mxCell id="UVCWo9QbfedvT14G9NhA-60" value="&amp;lt;&amp;lt;prevents&amp;gt;&amp;gt;" style="edgeLabel;html=1;align=center;verticalAlign=middle;resizable=0;points=[];fontSize=11;fontFamily=Helvetica;fontColor=default;" vertex="1" connectable="0" parent="UVCWo9QbfedvT14G9NhA-58">
          <mxGeometry x="0.4667" y="-1" relative="1" as="geometry">
            <mxPoint as="offset" />
          </mxGeometry>
        </mxCell>
        <mxCell id="UVCWo9QbfedvT14G9NhA-54" value="Enforce strong password policy" style="ellipse;whiteSpace=wrap;html=1;" vertex="1" parent="1">
          <mxGeometry x="474" y="360" width="80" height="70" as="geometry" />
        </mxCell>
        <mxCell id="UVCWo9QbfedvT14G9NhA-57" value="Dictionary Attack" style="ellipse;whiteSpace=wrap;html=1;fillColor=#000000;fontColor=#FFFFFF;" vertex="1" parent="1">
          <mxGeometry x="554" y="270" width="90" height="80" as="geometry" />
        </mxCell>
        <mxCell id="UVCWo9QbfedvT14G9NhA-63" style="edgeStyle=orthogonalEdgeStyle;shape=connector;rounded=0;orthogonalLoop=1;jettySize=auto;html=1;exitX=0;exitY=1;exitDx=0;exitDy=0;entryX=0.989;entryY=0.425;entryDx=0;entryDy=0;entryPerimeter=0;dashed=1;labelBackgroundColor=default;strokeColor=default;align=center;verticalAlign=middle;fontFamily=Helvetica;fontSize=11;fontColor=default;endArrow=open;endFill=0;" edge="1" parent="1" source="UVCWo9QbfedvT14G9NhA-9" target="UVCWo9QbfedvT14G9NhA-57">
          <mxGeometry relative="1" as="geometry" />
        </mxCell>
        <mxCell id="UVCWo9QbfedvT14G9NhA-64" value="&amp;lt;&amp;lt;includes&amp;gt;&amp;gt;" style="edgeLabel;html=1;align=center;verticalAlign=middle;resizable=0;points=[];fontSize=11;fontFamily=Helvetica;fontColor=default;" vertex="1" connectable="0" parent="UVCWo9QbfedvT14G9NhA-63">
          <mxGeometry x="0.1437" y="-1" relative="1" as="geometry">
            <mxPoint as="offset" />
          </mxGeometry>
        </mxCell>
      </root>
    </mxGraphModel>
  </diagram>
</mxfile>
